Coordinates
version=1
nRows=19
nColumns=24
inDegrees=yes

Units are S.I. units (second, meters, Newtons, ...)
Angles are in degrees.

endheader
time	pelvis_tilt	pelvis_list	pelvis_rotation	pelvis_tx	pelvis_ty	pelvis_tz	hip_flexion_r	hip_adduction_r	hip_rotation_r	knee_angle_r	ankle_angle_r	subtalar_angle_r	mtp_angle_r	hip_flexion_l	hip_adduction_l	hip_rotation_l	knee_angle_l	ankle_angle_l	subtalar_angle_l	mtp_angle_l	lumbar_extension	lumbar_bending	lumbar_rotation
      1.23300000	     -2.29499235	      1.40646740	      0.04902325	      0.24017646	      1.03281878	      0.26166092	     15.03100151	     -2.68865777	     -8.44959430	    -60.23700425	      1.13936726	     -7.31179780	      5.64957647	      9.33800760	      5.72219381	      5.70645258	    -11.43546000	      4.08403118	    -10.53663381	      1.03581081	     -3.09764514	     -2.35418491	      0.93016754
      1.23716667	     -2.34122893	      1.29930359	     -0.06589975	      0.24554630	      1.03344018	      0.26151784	     15.61511112	     -2.51796506	     -8.21075027	    -59.90887751	      1.87395467	     -7.33682183	      5.52114433	      8.93310145	      5.59941782	      5.66720464	    -11.19258868	      4.22235558	    -10.53721105	      0.96911260	     -3.05512619	     -2.20355930	      0.98583126
      1.24133333	     -2.38183577	      1.16718649	     -0.17502276	      0.25088604	      1.03406194	      0.26139112	     16.17511521	     -2.30737222	     -7.97763163	    -59.49717907	      2.48647401	     -7.53226572	      5.48695572	      8.52931129	      5.44969476	      5.62567492	    -10.96283746	      4.35661587	    -10.55682441	      0.94765341	     -3.05181750	     -2.00856174	      0.98044344
      1.24550000	     -2.43648116	      1.04816146	     -0.29499852	      0.25621732	      1.03462420	      0.26127493	     16.74527765	     -2.11249707	     -7.73403835	    -59.05148738	      3.14796671	     -7.53379934	      5.31731714	      8.13791107	      5.31331595	      5.56867094	    -10.72639453	      4.49541336	    -10.53722476	      0.85372119	     -3.02648771	     -1.82235148	      1.05914038
      1.24966667	     -2.47467150	      0.93197558	     -0.40930445	      0.26154090	      1.03519077	      0.26117643	     17.27863158	     -1.91199510	     -7.49451703	    -58.53234133	      3.69925014	     -7.72634853	      5.27574758	      7.72786131	      5.18081017	      5.51502229	    -10.48785572	      4.62270641	    -10.55702346	      0.82691490	     -3.03324746	     -1.64949222	      1.04861062
      1.25383333	     -2.52564445	      0.80812817	     -0.52541222	      0.26686376	      1.03572018	      0.26110581	     17.80967733	     -1.69709602	     -7.25349598	    -57.95339645	      4.22265619	     -7.86361573	      5.23207944	      7.32857168	      5.03935580	      5.46385092	    -10.24325341	      4.74677884	    -10.57005426	      0.79761521	     -3.02054458	     -1.46256114	      1.05388582
      1.25800000	     -2.56937647	      0.68168511	     -0.64032044	      0.27216845	      1.03621314	      0.26103617	     18.31901044	     -1.47847956	     -7.01548263	    -57.32265774	      4.71805642	     -7.98520520	      5.18400533	      6.92406300	      4.89663811	      5.40795872	    -10.00210897	      4.87468878	    -10.58179880	      0.76500369	     -3.01709043	     -1.27128161	      1.06869899
      1.26216667	     -2.60937152	      0.55436640	     -0.75070609	      0.27746581	      1.03669873	      0.26097193	     18.80564890	     -1.25728701	     -6.78306768	    -56.63052168	      5.17536854	     -8.10430220	      5.12985979	      6.51563811	      4.75466832	      5.35255405	     -9.75921653	      5.00116007	    -10.59213488	      0.72803394	     -3.02091293	     -1.08296364	      1.08685893
      1.26633333	     -2.65774217	      0.43285010	     -0.85893743	      0.28274626	      1.03712237	      0.26092711	     19.28787693	     -1.03981290	     -6.55198428	    -55.88987372	      5.59261778	     -8.22307596	      5.07321526	      6.11904492	      4.61936221	      5.30037465	     -9.52062661	      5.12909607	    -10.60555670	      0.68895967	     -3.01939870	     -0.90462534	      1.10273912
      1.27050000	     -2.70954461	      0.31221222	     -0.96223928	      0.28800607	      1.03749826	      0.26088694	     19.75834166	     -0.82219389	     -6.32490955	    -55.09729100	      5.97160848	     -8.34345162	      5.00247460	      5.73272107	      4.48711333	      5.24371148	     -9.29207123	      5.25638542	    -10.62686947	      0.63990248	     -3.01743968	     -0.72424947	      1.12101949
      1.27466667	     -2.69266850	      0.16430947	     -1.05508722	      0.29326631	      1.03799361	      0.26085421	     20.11793108	     -0.57141356	     -6.10736302	    -54.20541376	      6.20956678	     -8.52937930	      4.70683722	      5.25981441	      4.32754961	      5.22156518	     -9.03840527	      5.38876878	    -10.62064467	      0.43947336	     -3.10330079	     -0.52694296	      1.19120176
      1.27883333	     -2.76432969	      0.07712763	     -1.15825144	      0.29848760	      1.03825325	      0.26084452	     20.58730631	     -0.38463485	     -5.87142735	    -53.33652119	      6.61055050	     -8.61117134	      1.89221037	      4.89892056	      4.23772616	      5.18747347	     -8.81333790	      5.49652124	    -10.75366434	     -1.55492627	     -3.07185056	     -0.40941722	      1.14181355
      1.28300000	     -2.83644820	     -0.03580021	     -1.22935373	      0.30369603	      1.03848206	      0.26077870	     21.02883015	     -0.18791543	     -5.68694902	    -52.39591637	      6.91496729	     -8.69841136	      1.89006735	      4.54822933	      4.12202681	      5.17477725	     -8.60532296	      5.65813787	    -10.75896096	     -1.55705681	     -3.04996783	     -0.23319141	      1.13315868
      1.28716667	     -2.87740776	     -0.16019451	     -1.29249014	      0.30889026	      1.03873999	      0.26073202	     21.40581493	      0.02815954	     -5.49879924	    -51.36723366	      7.06138206	     -8.88478343	      1.86353599	      4.17036039	      3.99306473	      5.14786297	     -8.40675271	      5.79403860	    -10.77396694	     -1.57916747	     -3.07176411	     -0.05977517	      1.11838324
      1.29133333	     -2.95121676	     -0.26144036	     -1.36267283	      0.31408726	      1.03888543	      0.26069100	     21.81276990	      0.21394037	     -5.31510977	    -50.32359177	      7.28212157	     -8.98235948	      1.85273024	      3.82643160	      3.89062258	      5.11200907	     -8.20247988	      5.92883029	    -10.81190704	     -1.59023630	     -3.04692770	      0.09286662	      1.09133221
      1.29550000	     -3.00232139	     -0.37963926	     -1.40324700	      0.31924178	      1.03904900	      0.26062758	     22.16068963	      0.41594093	     -5.14848485	    -49.18679570	      7.34714892	     -9.18846043	      1.82006838	      3.47882077	      3.77321806	      5.10259650	     -8.03831507	      6.04504320	    -10.86858984	     -1.62078504	     -3.06374339	      0.25931835	      1.05129621
      1.29966667	     -3.05355995	     -0.47938854	     -1.44603908	      0.32440873	      1.03916540	      0.26056732	     22.49475155	      0.59178980	     -4.99039996	    -48.01620471	      7.41321571	     -9.37085462	      1.78452320	      3.12003455	      3.67676350	      5.09864618	     -7.84732384	      6.16718477	    -10.92631722	     -1.65693477	     -3.07091476	      0.40409945	      1.00165879
      1.30383333	     -3.10333965	     -0.57372026	     -1.48172749	      0.32957859	      1.03925280	      0.26051627	     22.80439638	      0.75987199	     -4.84477077	    -46.78590565	      7.39085259	     -9.61296555	      1.72546836	      2.75223287	      3.58663707	      5.11961590	     -7.63835160	      6.28466724	    -10.99095578	     -1.72003846	     -3.07938628	      0.53118365	      0.92804377
      1.30800000	     -3.18610989	     -0.66503160	     -1.51190667	      0.33473337	      1.03923041	      0.26044296	     23.13690479	      0.91326830	     -4.72124131	    -45.52969369	      7.45520354	     -9.72943644	      1.69354934	      2.43805464	      3.50036867	      5.10757062	     -7.46411907	      6.40986832	    -11.04882269	     -1.75505380	     -3.06151431	      0.67331534	      0.87879410
